<?xml version="1.0" standalone="no"?>
<!DOCTYPE svg PUBLIC "-//W3C//DTD SVG 20010904//EN"
 "http://www.w3.org/TR/2001/REC-SVG-20010904/DTD/svg10.dtd">
<svg version="1.0" xmlns="http://www.w3.org/2000/svg"
 width="500.000000pt" height="500.000000pt" viewBox="0 0 500.000000 500.000000"
 preserveAspectRatio="xMidYMid meet">

<g transform="translate(0.000000,500.000000) scale(0.100000,-0.100000)"
fill="#000000" stroke="none">
<path d="M932 4729 c-87 -11 -205 -52 -282 -97 -81 -46 -233 -197 -279 -275
-48 -82 -88 -202 -101 -299 -13 -105 -13 -3013 0 -3113 12 -97 52 -218 97
-295 51 -87 190 -227 278 -278 90 -53 195 -89 299 -102 103 -13 3012 -13 3111
0 97 12 217 52 295 97 37 22 104 77 155 128 105 105 160 195 202 330 l28 90 3
960 3 960 -23 44 c-33 63 -68 86 -133 86 -58 0 -91 -18 -129 -69 -21 -27 -21
-37 -26 -989 -6 -1079 -1 -1006 -82 -1127 -42 -63 -113 -127 -179 -161 -99
-50 -56 -49 -1667 -49 -1326 0 -1511 2 -1572 16 -167 38 -305 175 -345 345
-22 97 -22 3041 0 3138 40 170 178 307 345 345 60 14 193 16 998 16 l929 0 33
23 c99 67 105 184 14 253 l-37 29 -936 1 c-515 1 -965 -2 -999 -7z"/>
<path d="M3990 4725 c-30 -9 -73 -27 -95 -40 -22 -13 -551 -536 -1176 -1162
l-1137 -1138 -92 -285 c-91 -281 -92 -286 -88 -365 8 -133 71 -231 190 -296
59 -32 69 -34 158 -34 92 0 102 2 365 88 l270 89 1143 1141 c906 906 1148
1152 1167 1192 55 112 54 233 -2 337 -15 28 -102 122 -222 241 -175 173 -202
196 -255 216 -78 29 -158 35 -226 16z m277 -458 c121 -121 163 -169 163 -187
0 -18 -44 -68 -173 -198 l-174 -173 -92 95 c-51 52 -135 136 -187 187 l-95 92
173 174 c130 129 180 173 198 173 18 0 66 -42 187 -163z m-587 -592 l185 -185
-815 -815 -815 -815 -239 -80 c-334 -111 -327 -118 -216 216 l80 239 813 813
c446 446 814 812 817 812 3 0 88 -83 190 -185z"/>
</g>
</svg>
